<svg width="512" height="512" viewBox="0 0 512 512" fill="none" xmlns="http://www.w3.org/2000/svg">
<rect width="512" height="512" rx="64" fill="#3b82f6"/>
<g transform="translate(64, 64)">
  <!-- Personnage 1 (orange) -->
  <g transform="translate(40, 200)">
    <circle cx="0" cy="0" r="20" fill="#ff6b35"/>
    <rect x="-15" y="0" width="30" height="60" rx="15" fill="#ff6b35"/>
    <rect x="-25" y="20" width="20" height="40" rx="10" fill="#ff6b35"/>
    <rect x="5" y="20" width="20" height="40" rx="10" fill="#ff6b35"/>
    <rect x="-20" y="60" width="15" height="30" rx="7" fill="#ff6b35"/>
    <rect x="5" y="60" width="15" height="30" rx="7" fill="#ff6b35"/>
    <!-- Globe/basketball -->
    <circle cx="0" cy="-40" r="15" fill="#ff6b35"/>
    <path d="M-15,-40 Q0,-55 15,-40 Q0,-25 -15,-40" fill="none" stroke="white" stroke-width="2"/>
    <path d="M-15,-40 Q0,-25 15,-40" fill="none" stroke="white" stroke-width="2"/>
  </g>
  
  <!-- Personnage 2 (vert) -->
  <g transform="translate(120, 200)">
    <circle cx="0" cy="0" r="20" fill="#4ecdc4"/>
    <rect x="-15" y="0" width="30" height="60" rx="15" fill="#4ecdc4"/>
    <rect x="-25" y="20" width="20" height="40" rx="10" fill="#4ecdc4"/>
    <rect x="5" y="20" width="20" height="40" rx="10" fill="#4ecdc4"/>
    <rect x="-20" y="60" width="15" height="30" rx="7" fill="#4ecdc4"/>
    <rect x="5" y="60" width="15" height="30" rx="7" fill="#4ecdc4"/>
  </g>
  
  <!-- Personnage 3 (teal) -->
  <g transform="translate(200, 200)">
    <circle cx="0" cy="0" r="20" fill="#45b7d1"/>
    <rect x="-15" y="0" width="30" height="60" rx="15" fill="#45b7d1"/>
    <rect x="-25" y="20" width="20" height="40" rx="10" fill="#45b7d1"/>
    <rect x="5" y="20" width="20" height="40" rx="10" fill="#45b7d1"/>
    <rect x="-20" y="60" width="15" height="30" rx="7" fill="#45b7d1"/>
    <rect x="5" y="60" width="15" height="30" rx="7" fill="#45b7d1"/>
  </g>
  
  <!-- Personnage 4 (bleu) -->
  <g transform="translate(280, 200)">
    <circle cx="0" cy="0" r="20" fill="#96ceb4"/>
    <rect x="-15" y="0" width="30" height="60" rx="15" fill="#96ceb4"/>
    <rect x="-25" y="20" width="20" height="40" rx="10" fill="#96ceb4"/>
    <rect x="5" y="20" width="20" height="40" rx="10" fill="#96ceb4"/>
    <rect x="-20" y="60" width="15" height="30" rx="7" fill="#96ceb4"/>
    <rect x="5" y="60" width="15" height="30" rx="7" fill="#96ceb4"/>
    <!-- Globe/basketball -->
    <circle cx="0" cy="-40" r="15" fill="#96ceb4"/>
    <path d="M-15,-40 Q0,-55 15,-40 Q0,-25 -15,-40" fill="none" stroke="white" stroke-width="2"/>
    <path d="M-15,-40 Q0,-25 15,-40" fill="none" stroke="white" stroke-width="2"/>
  </g>
  
  <!-- Particules/sparkles -->
  <circle cx="60" cy="120" r="3" fill="white" opacity="0.8"/>
  <circle cx="180" cy="140" r="2" fill="white" opacity="0.6"/>
  <circle cx="250" cy="110" r="2.5" fill="white" opacity="0.7"/>
  <circle cx="320" cy="130" r="2" fill="white" opacity="0.5"/>
  <circle cx="100" cy="100" r="1.5" fill="white" opacity="0.9"/>
  <circle cx="220" cy="90" r="1.5" fill="white" opacity="0.8"/>
</g>
</svg>
