<svg width="512" height="512" viewBox="0 0 512 512" fill="none" xmlns="http://www.w3.org/2000/svg">
<rect width="512" height="512" rx="64" fill="#3b82f6"/>
<g transform="translate(80, 100)">
  <!-- Personnage 1 (orange/jaune) -->
  <g transform="translate(60, 150)">
    <!-- Tête -->
    <circle cx="0" cy="0" r="25" fill="#1e3a8a"/>
    <!-- Corps avec dégradé orange-jaune -->
    <defs>
      <linearGradient id="grad1" x1="0%" y1="0%" x2="100%" y2="0%">
        <stop offset="0%" style="stop-color:#ff6b35;stop-opacity:1" />
        <stop offset="100%" style="stop-color:#fbbf24;stop-opacity:1" />
      </linearGradient>
    </defs>
    <rect x="-20" y="0" width="40" height="80" rx="20" fill="url(#grad1)"/>
    <!-- Bras gauche -->
    <rect x="-35" y="10" width="20" height="50" rx="10" fill="url(#grad1)"/>
    <!-- Bras droit -->
    <rect x="15" y="10" width="20" height="50" rx="10" fill="url(#grad1)"/>
    <!-- Cercle blanc sur la poitrine -->
    <circle cx="0" cy="40" r="8" fill="white"/>
    <!-- Basketball -->
    <circle cx="0" cy="-50" r="18" fill="#4ade80"/>
    <path d="M-18,-50 Q0,-68 18,-50 Q0,-32 -18,-50" fill="none" stroke="#1e3a8a" stroke-width="2"/>
    <path d="M-18,-50 Q0,-32 18,-50" fill="none" stroke="#1e3a8a" stroke-width="2"/>
  </g>
  
  <!-- Personnage 2 (vert) -->
  <g transform="translate(180, 150)">
    <!-- Tête -->
    <circle cx="0" cy="0" r="25" fill="#1e3a8a"/>
    <!-- Corps vert -->
    <rect x="-20" y="0" width="40" height="80" rx="20" fill="#22c55e"/>
    <!-- Bras gauche -->
    <rect x="-35" y="10" width="20" height="50" rx="10" fill="#22c55e"/>
    <!-- Bras droit -->
    <rect x="15" y="10" width="20" height="50" rx="10" fill="#22c55e"/>
    <!-- Cercle blanc sur la poitrine -->
    <circle cx="0" cy="40" r="8" fill="white"/>
  </g>
  
  <!-- Personnage 3 (teal) -->
  <g transform="translate(300, 150)">
    <!-- Tête -->
    <circle cx="0" cy="0" r="25" fill="#1e3a8a"/>
    <!-- Corps teal -->
    <rect x="-20" y="0" width="40" height="80" rx="20" fill="#14b8a6"/>
    <!-- Bras gauche -->
    <rect x="-35" y="10" width="20" height="50" rx="10" fill="#14b8a6"/>
    <!-- Bras droit -->
    <rect x="15" y="10" width="20" height="50" rx="10" fill="#14b8a6"/>
    <!-- Cercle blanc sur la poitrine -->
    <circle cx="0" cy="40" r="8" fill="white"/>
    <!-- Basketball -->
    <circle cx="0" cy="-50" r="18" fill="#4ade80"/>
    <path d="M-18,-50 Q0,-68 18,-50 Q0,-32 -18,-50" fill="none" stroke="#1e3a8a" stroke-width="2"/>
    <path d="M-18,-50 Q0,-32 18,-50" fill="none" stroke="#1e3a8a" stroke-width="2"/>
  </g>
  
  <!-- Particules/sparkles -->
  <circle cx="40" cy="80" r="4" fill="white" opacity="0.8"/>
  <circle cx="200" cy="100" r="3" fill="white" opacity="0.6"/>
  <circle cx="320" cy="70" r="3.5" fill="white" opacity="0.7"/>
  <circle cx="80" cy="60" r="2" fill="white" opacity="0.9"/>
  <circle cx="240" cy="50" r="2.5" fill="white" opacity="0.8"/>
</g>
</svg>
